<?xml version="1.0" encoding="UTF-8"?> <svg xmlns="http://www.w3.org/2000/svg" xmlns:xlink="http://www.w3.org/1999/xlink" width="127px" height="27px" viewBox="0 0 127 27"><!-- Generator: Sketch 61.2 (89653) - https://sketch.com --><title>Assets/Logo</title><desc>Created with Sketch.</desc><defs><linearGradient x1="0%" y1="49.9977288%" x2="100%" y2="49.9977288%" id="linearGradient-1"><stop stop-color="#175ECA" offset="0%"></stop><stop stop-color="#3B9FF4" offset="100%"></stop></linearGradient><linearGradient x1="0%" y1="49.9977288%" x2="100%" y2="49.9977288%" id="linearGradient-2"><stop stop-color="#175ECA" offset="0%"></stop><stop stop-color="#175ECA" offset="86%"></stop><stop stop-color="#175ECA" offset="100%"></stop></linearGradient><linearGradient x1="1.847468e-06%" y1="50%" x2="100%" y2="50%" id="linearGradient-3"><stop stop-color="#05A9F4" offset="0%"></stop><stop stop-color="#4CC8F2" offset="100%"></stop></linearGradient><linearGradient x1="2.70383452%" y1="49.9997653%" x2="98.7574396%" y2="49.9997653%" id="linearGradient-4"><stop stop-color="#05A9F4" offset="0%"></stop><stop stop-color="#175ECA" offset="100%"></stop></linearGradient></defs><g id="Symbols" stroke="none" stroke-width="1" fill="none" fill-rule="evenodd"><g id="Components/Website/Navbar" transform="translate(-127.000000, -21.000000)"><g id="Navbar"><g id="Assets/Logo" transform="translate(127.000000, 21.000000)"><g id="Logo"><g id="Group-Copy-2" transform="translate(37.926000, 0.000000)" fill="#131F3D" fill-rule="nonzero"><g id="Group-32" transform="translate(0.113519, 0.000408)"><path d="M7.5139147,10.1409985 C5.83951242,10.1409985 4.33530725,11.2841311 4.33530725,13.6562128 C4.33530725,15.9996346 5.83951242,17.2000055 7.5139147,17.2000055 C9.21669664,17.2000055 10.7209019,16.028213 10.7209019,13.6562128 C10.7209019,11.2841311 9.21669664,10.1409985 7.5139147,10.1409985 Z M0.0782712121,26.2023378 L0.0782712121,6.56870924 L4.25016815,6.56870924 L4.25016815,8.0262033 C4.84614184,7.11161556 6.37864563,6.22568781 8.39368542,6.22568781 C12.4804433,6.22568781 14.9494771,9.36938405 14.9494771,13.6276346 C14.9494771,17.97162 12.1681854,21.0866563 8.2234072,21.0866563 C6.40710641,21.0866563 5.04479974,20.4579334 4.39206665,19.6577405 L4.39206665,25.10787 L0.0782712121,26.2023378 Z" id="Fill-20"></path><path d="M25.6342394,11.9700433 C25.57748,10.8840674 24.8395267,9.56946488 22.7961884,9.56946488 C20.9798876,9.56946488 20.0716562,10.9126457 19.9865981,11.9700433 L25.6342394,11.9700433 Z M29.5507191,16.6855469 C28.8695252,19.1433636 26.6275289,21.2010022 23.0516057,21.2010022 C19.1635057,21.2010022 15.7011823,18.4002457 15.7011823,13.6275856 C15.7011823,9.05497362 19.0783666,6.13998552 22.739429,6.13998552 C27.1099838,6.13998552 29.8060553,8.85500701 29.8060553,13.427619 C29.8060553,14.0277636 29.749377,14.6849832 29.7209162,14.7707998 L19.901459,14.7707998 C19.9865981,16.3711854 21.4339628,17.514318 23.1084462,17.514318 C24.6693296,17.514318 25.5491004,16.7712818 25.9464162,15.6567276 L29.5507191,16.6855469 Z" id="Fill-22"></path><path d="M48.385823,17.199981 C50.0602253,17.199981 51.5644305,15.9996918 51.5644305,13.6561883 C51.5644305,11.2841883 50.0602253,10.1409741 48.385823,10.1409741 C46.7114207,10.1409741 45.2072966,11.2841883 45.2072966,13.6561883 C45.2072966,15.9996918 46.7114207,17.199981 48.385823,17.199981 Z M55.7647071,18.2288003 C55.7647071,19.5149061 55.8498462,20.4579089 55.8781449,20.7722703 L51.7347087,20.7722703 C51.706329,20.6008004 51.6211899,19.9721592 51.6211899,19.4005112 C50.9684568,20.3722555 49.5494718,21.0867134 47.8466898,21.0867134 C43.8734508,21.0867134 40.8651215,18.0001738 40.8651215,13.6276101 C40.8651215,9.39793783 43.7030915,6.22574497 47.7047913,6.22574497 C50.1170658,6.22574497 51.1671147,7.14025103 51.5076711,7.683239 L51.5306181,1.18379543 L55.7647071,0.0812440656 L55.7647071,18.2288003 Z" id="Fill-24"></path><path d="M41.8459078,6.9692384 C40.5618479,6.43988636 39.6208582,6.42576051 39.307222,6.42576051 C38.172034,6.42576051 36.3841129,6.88301354 35.6462407,8.48339913 L35.6462407,6.56865208 L31.4743437,6.56865208 L31.4743437,20.7723193 L35.7881392,20.7723193 L35.7881392,14.5707434 C35.7881392,11.7414086 37.3490227,10.7125893 39.0802654,10.7125893 C39.2207855,10.7125893 39.4155513,10.7292464 39.6387779,10.7712973 C40.0249851,9.43170923 40.6867997,8.2226833 41.5917878,7.23379193 C41.6747376,7.14332116 41.7596335,7.05546325 41.8459078,6.9692384" id="Fill-26"></path><path d="M68.0527847,13.6561965 C68.0527847,11.2556181 66.5202808,10.1409822 64.8742582,10.1409822 C63.2566154,10.1409822 61.6956508,11.2556181 61.6956508,13.6561965 C61.6956508,16.0281966 63.2566154,17.1999891 64.8742582,17.1999891 C66.5202808,17.1999891 68.0527847,16.0567749 68.0527847,13.6561965 M72.3665801,13.6561965 C72.3665801,18.0573386 69.1028335,21.2009532 64.8742582,21.2009532 C60.6739816,21.2009532 57.3818554,18.0573386 57.3818554,13.6561965 C57.3818554,9.25505445 60.6739816,6.13993654 64.8742582,6.13993654 C69.1028335,6.13993654 72.3665801,9.25505445 72.3665801,13.6561965" id="Fill-28"></path><path d="M84.177579,13.6561965 C84.177579,11.2556181 82.6450745,10.1409822 80.999052,10.1409822 C79.381409,10.1409822 77.8204445,11.2556181 77.8204445,13.6561965 C77.8204445,16.0281966 79.381409,17.1999891 80.999052,17.1999891 C82.6450745,17.1999891 84.177579,16.0567749 84.177579,13.6561965 M88.4913743,13.6561965 C88.4913743,18.0573386 85.2276276,21.2009532 80.999052,21.2009532 C76.7987756,21.2009532 73.5066493,18.0573386 73.5066493,13.6561965 C73.5066493,9.25505445 76.7987756,6.13993654 80.999052,6.13993654 C85.2276276,6.13993654 88.4913743,9.25505445 88.4913743,13.6561965" id="Fill-30"></path></g></g><g id="Asset-1-Copy" fill-rule="nonzero"><polygon id="Shape" fill="url(#linearGradient-1)" points="4.68243538 26.4384 14.2994185 8.19258886 23.9155857 26.4384 14.2994185 26.4384"></polygon><polygon id="Shape" fill="url(#linearGradient-2)" points="14.2994185 8.19258886 23.9155857 26.4384 14.2994185 26.4384"></polygon><polygon id="Shape" fill="#FFFFFF" points="7.81629744 20.4926608 14.2994185 8.19258886 20.7817236 20.4926608 14.2994185 17.0946219"></polygon><path d="M11.0660169,2.05871428 L0.431609742,21.9115492 C0.149166424,22.379089 -0.000229570546,22.916979 -2.65445021e-07,23.4655304 C-2.65445021e-07,25.0791844 1.3380718,26.4384 2.9266241,26.4384 L4.68243538,26.4384 L14.2994185,8.17601307 L11.0660169,2.05871428 Z" id="Shape" fill="url(#linearGradient-3)"></path><path d="M28.5980222,23.4655304 C28.5984961,22.9170585 28.4493841,22.3791743 28.1672272,21.9115492 L18.9989877,4.79537876 C18.9989877,4.79537876 18.9231092,4.65531325 18.8986323,4.60807223 C14.2994185,-3.97073274 11.0660169,2.05871428 11.0660169,2.05871428 L23.9155857,26.4384 L25.7554344,26.4384 C27.3439866,26.4384 28.5980222,25.0783557 28.5980222,23.4655304 Z" id="Shape" fill="url(#linearGradient-4)"></path></g></g></g></g></g></g></svg> 